<mxfile host="app.diagrams.net" modified="2023-09-04T22:14:50.793Z" agent="Mozilla/5.0 (Windows NT 10.0; Win64; x64) AppleWebKit/537.36 (KHTML, like Gecko) Chrome/116.0.0.0 Safari/537.36 Edg/116.0.1938.69" version="21.7.2" etag="bfxUPLta2L6AUAa5v54B" type="github">
  <diagram name="PÃ¡gina-1" id="HI1I8D31MHRvUqRoD5CX">
    <mxGraphModel>
      <root>
        <mxCell id="0" />
        <mxCell id="1" parent="0" />
      </root>
    </mxGraphModel>
  </diagram>
</mxfile>
